{
    "asset" : {
        "generator" : "Khronos glTF Blender I/O v3.4.50",
        "version" : "2.0"
    },
    "scene" : 0,
    "scenes" : [
        {
            "name" : "Scene",
            "nodes" : [
                0
            ]
        }
    ],
    "nodes" : [
        {
            "mesh" : 0,
            "name" : "Text",
            "rotation" : [
                0.5978699326515198,
                0,
                0,
                0.8015931248664856
            ]
        }
    ],
    "meshes" : [
        {
            "name" : "ccweceewe",
            "primitives" : [
                {
                    "attributes" : {
                        "POSITION" : 0,
                        "TEXCOORD_0" : 1,
                        "NORMAL" : 2
                    },
                    "indices" : 3
                }
            ]
        }
    ],
    "accessors" : [
        {
            "bufferView" : 0,
            "componentType" : 5126,
            "count" : 2089,
            "max" : [
                2.404768943786621,
                0,
                0.12754955887794495
            ],
            "min" : [
                0.011203677393496037,
                0,
                -0.38954323530197144
            ],
            "type" : "VEC3"
        },
        {
            "bufferView" : 1,
            "componentType" : 5126,
            "count" : 2089,
            "type" : "VEC2"
        },
        {
            "bufferView" : 2,
            "componentType" : 5126,
            "count" : 2089,
            "type" : "VEC3"
        },
        {
            "bufferView" : 3,
            "componentType" : 5123,
            "count" : 4734,
            "type" : "SCALAR"
        }
    ],
    "bufferViews" : [
        {
            "buffer" : 0,
            "byteLength" : 25068,
            "byteOffset" : 0,
            "target" : 34962
        },
        {
            "buffer" : 0,
            "byteLength" : 16712,
            "byteOffset" : 25068,
            "target" : 34962
        },
        {
            "buffer" : 0,
            "byteLength" : 25068,
            "byteOffset" : 41780,
            "target" : 34962
        },
        {
            "buffer" : 0,
            "byteLength" : 9468,
            "byteOffset" : 66848,
            "target" : 34963
        }
    ],
    "buffers" : [
        {
            "byteLength" : 76316,
            "uri" : "data:application/octet-stream;base64,"
        }
    ]
}
